<?xml version="1.0" encoding="UTF-8"?>
<svg width="318.2mm" height="192.1mm" version="1.1" viewBox="0 0 318.2 192.1" xml:space="preserve" xmlns="http://www.w3.org/2000/svg"><g transform="translate(106.8 37.12)"><rect x="-106.8" y="-37.12" width="318.2" height="192.1" style="fill:#a8a8a8"/><path d="m-62.84 117.2c-2.311-7.951-4.399-16.85-2.39-25.36 2.009-8.507 7.745-18.33 14.28-22.89s20.39-4.23 20.39-4.23 5.458-15.54 10.3-21.49 7.509-8.027 13.42-9.689c5.916-1.662 21.97-3.846 21.97-3.846s7.082-18.92 14.66-25.99c7.578-7.065 18.02-11.56 27.55-11.28 9.533 0.2831 23.46 9.408 23.46 9.408s18.87-20.44 38.29-10.1c19.42 10.34 15.09 33.1 15.09 33.1s18.35 1.062 24.7 17.53c6.35 16.47-5.735 29.77-5.735 29.77s13.13 15.03 15.74 23.83c2.611 8.801-0.3828 24.91-0.3828 24.91l-220.4 17.88s-8.692-13.62-11-21.57z" style="fill:#b3b3b3"/><rect x="-106.8" y="123.2" width="318.2" height="31.86" style="fill:#868686"/><path d="m211.4 139.3-22.22-1.838-34.09-2.167-29.34-1.657-34.82-2.551-26.52-1.791-22.15-1.673-26.17-1.716-19.81-1.637-0.00235-2.521 11.09-0.3269 0.2009-10.31 15.6-0.1078 0.1156 4.051 5.702 0.0533 0.1244-0.5598 2.983-0.1616 0.2069-5.963 2.945-0.0427 0.6049-5.411 4.681 1.136 0.2816 4.334 3.326-0.0823 0.1236 1.901 3.89 0.0182v2.848l1.091 0.2457-0.02551 0.9523h3.261l1.092-1.894h1.8l0.9089 1.574 0.9488-0.0939-0.05647-2.926 0.7925-0.0297 0.07392-1.663 0.6634-0.1546-0.0075-3.69 21.22-0.0289 0.1403 3.963 0.4508 0.6647 0.1333 1.589 0.9828-0.1611 0.3693-6.959 2.053-3.872-0.1806-15.98 2.695-0.7865-0.08823-12.75 10.48-2.665 6.778 1.359 11.28 37.64 38.41-3.123 2.13-1.045 5.872-0.0789 2.809 1.995 6.799 0.8898 0.1486-0.8708 1.041 0.0596 0.0643-1.637 0.2977-0.0518 0.0666 1.473 0.3638 0.1981 1.609 3.251 16.52 2.634 2.644-0.2751 2.336 1.392 1.116 0.1332-1.367-15.92 1.556-0.04659 1.552 14.69 3.921-0.0508-0.1895-1.512 5.539-0.3097-0.0632-8.284 3.21 0.152z" style="fill:#434343"/><path d="m147.1 134.5-0.2592-9.863-1.164-1.154 0.101-7.163 26.11-1.659-0.1778-2.943-28.85-7.063-0.2936-5.889 5.866-2.533 6.967-1.142 3.407-0.4695 6.833 0.3212 7.362 1.227 3.569 2.686-0.5437-5.732-3.309-0.5705-9.251 0.1887-12.36 1.324-9.52 1.083 0.0999-2.971 0.4573-0.6486-0.78-0.3331-3.464-0.3836-5.558 0.6855 0.8287 1.011 0.5585 11.52-0.083 6.115-2.492 3.494 0.3776 10.84-1.157 0.6069 0.4058 8.814z" style="fill:#585858"/><path d="m-75.07 119.8-10.91-0.0839 1.053-20.1 1.936-2.365 0.2183-3.483 3.684-0.4663 0.8933-0.9213 3.983-0.5753 2.087-26.29-0.9194-1.464 1.398-2.33 9.279 0.9124 5.319-5.251-4.315 62.27z" style="fill:#585858;stroke-width:.2646"/><path d="m-30.12 123.2-46.18-3.486 1.286-20.22 14.29-10.47 2.833-41.53-1.534-2.315 3.161-4.704 20.15 3.578-1.907 2.368-2.569 43.24 11.46 10.46z" style="fill:#575757;stroke-width:.2646"/><path d="m130.3 145.5-12.03 1.951-24.13-2.927 0.1045-7.11 2.861-1.855 7.117 0.1432-1.683-67.58-2.68-0.6798-20.33 4.959-3.772 2.25 0.8668 57.8 6.053 0.5738 3.045 1.165-0.02024 5.993-10.3 1.334-6.128-0.1443-10.72-1.883-0.09423-5.566 2.259-1.57 3.948 0.085 0.7796-102.8 2.297-4.808-0.1723-10.29 2.429-1.507 1.028 0.2396 0.05815 9.844 2.454 0.4369 0.8837 2.758 1.197 39.57 26.72-5.836-1.378-46.36 1.072-6.082 3.305-1.796-0.3-12.8 2.893-1.583 2.055 1.321 0.5359 10.45 2.426 1.15 0.7314 6.434 6.038 125.4 5.021 0.276 4.841 2.208z" style="fill:#585858;stroke-width:.2646"/><path d="m75.07 66.43 9.942-9.749-9.968-3.337 2.554-1.414 9.11 2.925 11.59-10.59 4.332-1.945-0.5963 1.882-11.65 10.85 12.61 4.986-1.888 2.405-13.25-5.223-11.35 10.77z" style="fill:#585858;stroke-width:.2646"/><path d="m102.7 36.22-31.55 12.34 1.27 5.382 31.43-11.67z" style="fill:#585858;stroke-width:.2646"/><path d="m74.8 48.63 12.35-13.28 14.58 3.031 1.026-2.163-12.95-2.727 11.06-12.63-2.283-0.4781-4.243 4.122-7.928 8.411-9.911-1.988-1.185 2.04 9.424 1.662-12.48 13.22z" style="fill:#585858;stroke-width:.2646"/><path d="m74.1 35.19 2.899-3.137 21.24-10.4 5.101 0.2754-1.699-8.675-15.02 8.026-18.27 8.626z" style="fill:#585858;stroke-width:.2646"/><path d="m-29.87 107.5 46.05-0.5306 31.72-0.0541 38.04 0.7866 20.27 1.028 54.19 3.669 9.675-0.0235 4.772-4.97-12.42-1.611-39.19-3.618-32.54-2.291-41.12-1.499-33.58-1.529v-1.963l-2.076-0.03534-0.6717-1.338-11.62-0.4866-1.055 0.7774-1.99 0.1862-0.194 2.427-37.86-0.4531z" style="fill:#585858;stroke-width:.2646"/><path d="m-40.67 84.37 23.43-5.524 26.62-6.834 18.68-6.504 11.9-6.896 12.63-6.877 13.59-11.74-0.5585 1.647-4.149 3.551v0.7394l-0.4818 0.6569 0.3011 48.76 1.48 3.802-3.095 0.02474 0.9999-3.709-0.1835-48.37-0.4706 0.2298-0.1187-0.8721-3.826 3.309-2.938 2.693-9.97 5.562-0.6285 1.157-0.2272 34.98 0.5309-0.0088 0.3566 3.269 1.505 1.589-4.871 0.0019 1.2-1.53-0.05596-3.016 0.5853-0.241-0.02029-34.64-0.5533-0.4271-2.951 1.783-5.492 3.016-5.24 2.832-5.692 2.012 0.02525 1.452-0.722 0.2918-0.3678 23.73 0.5184 0.02186 0.5996 3.309-2.725 0.3662 0.102-3.67 1.051-0.05023 0.297-23.42-0.7019 0.04476-0.04034-1.488-7.515 2.694-9.187 3.442-1.928 0.7251 0.06663 1.392-0.8011 0.1999-0.3121 20.33-0.4812-0.5317 0.2488-19.72-0.481 0.1299-0.1241-1.149-7.052 0.9638-16.08 3.751-11.95 2.849-0.02109 1.912-1.178 0.996 0.1031 7.623-0.6743-1.933 0.07287-5.862-0.6845-0.7732v-1.395l-2.903 0.533z" style="fill:#585858;stroke-width:.2646"/><path d="m-40.91 87.32 14.43-3.707 9.322-2.167 9.494-3.373 17.42-6.741 9.387-5.107 8.675-4.623 10.26-7.986 9.915-7.887 1.839-1.54 15.51-19.39 2.892 0.2762-2.683 5.431 0.4736-4.927-0.6982-0.05205-8.393 10.61-3.929 4.871-0.09148 0.8361-0.3752 0.3964 0.2402 58.13-0.5244-0.0275 0.0034-57.98-1.391 1.211-1.544 2.063-11.73 9.278-0.2722 1.284-0.316 0.2828-0.3158 43.96-0.3226 0.0979 0.3065-43.92-0.4555 0.2076-0.1122-0.5453-2.108 1.709-4.82 3.704-2.538 1.446-6.303 3.486-0.3864 1.074-0.2271 0.08003-0.5086 31.87-0.3255 0.01222 0.2989-31.68-0.6638-0.4905-1.808 1.276-8.136 4.411-11.46 4.253-0.09994 0.9104-0.8732 0.2413-0.54 15.41 0.7565 0.1212 0.3648 2.794-2.794 0.1171 0.5233-3.02 0.8473-0.1737 0.4382-15.15-0.7202 0.1184-0.03279-0.5065-8.365 2.617-7.464 2.491-0.06663 1.406-0.783 0.1839-0.4933 14.17-0.466 0.03826 0.5199-14.08-0.7985-0.05986 0.1157-1.072-18.99 4.389z" style="fill:#585858;stroke-width:.2646"/><path d="m-74.9 107.9-31.85 0.4295v-11.22l43.7 0.3441-12.29 11.16z" style="fill:#575757;stroke-width:.2646"/><path d="m102 15.62c-0.3269-0.1634-11.27-4.03-11.27-4.03l-11.39 15.19 0.882-0.06663 10.15-13.88 0.5872 1.06 2.02 83.63-0.3948 0.4812 0.133 4.128 1.508-0.3206-0.02109-4.09-0.6137-0.2475-2.095-83.31 0.4274-0.2324v-1.141l11.13 3.914z" style="fill:#585858;stroke-width:.2646"/><path d="m81.58 29.53 2.779 0.165 19.21 35.24-1.593-1.305-17.33-32.07-0.3321 0.4438 0.9052 70.9-0.2798-0.064-0.9679-70.75-0.7162-0.03305-0.6275-1.83-3.136-0.5996z" style="fill:#585858;stroke-width:.2646"/><path d="m78.98 99.73-0.03045-2.847-0.5577-0.3024-1.275-67.09-0.4781 0.3605 1.282 66.76-0.8305-0.03774 0.0799 4.104z" style="fill:#585858;stroke-width:.2646"/><path d="m95.19 51.38 1.26 51.47h0.1543l-1.125-51.95z" style="fill:#585858;stroke-width:.2646"/><path d="m114.1 26.01 1.76 3.649 5.044 9.933 4.196 8.411 7.177 11.07 6.724 10.39 6.823 7.83 7.272 8.223 8.575 7.395 12.81 9.15-2e-3 1.546-0.9388-1.231-4.073-2.788-10.67-7.702-8.313-7.835-7.484-8.617-6.141-6.74-6.463-10.31-8.72-14.54-8.235-17.14z" style="fill:#585858;stroke-width:.2646"/><path d="m116.3 78.85 2.132 2.824 5.781 6.088 10.19 7.839 17.6 11.12-1.273 0.392-17.6-11.56-9.041-6.848-9.347-10.18z" style="fill:#585858;stroke-width:.2646"/><path d="m121.5 43.35 2.613 56.38-0.8482 0.5265 0.0591 3.004 2.704 0.4219-0.6887-3.591-0.584-0.475-2.479-56.14z" style="fill:#585858;stroke-width:.2646"/><path d="m136.5 103.7 6e-3 -3.273-1.331-1.096-1.378-37.03-0.602-0.0064 1.275 37.32-0.4603 0.1548-0.2921 4.565z" style="fill:#585858;stroke-width:.2646"/><path d="m144.1 104.7-0.217-3.025 1.033-0.3832-1.152-25.73 0.3798 0.3072 1.212 25.4 0.7558 0.5418 0.6259 3.129z" style="fill:#585858;stroke-width:.2646"/><path d="m153.9 105.8-0.1393-2.766 0.818-0.2781-0.8309-16.32 0.3502 0.41 0.8951 15.95 0.7161 0.382 0.2869 3.457z" style="fill:#585858;stroke-width:.2646"/><path d="m162 106.3 0.3486-2.115 0.335-0.0315-0.4049-10.11 0.4384-0.08521 0.3889 9.932 0.4728 0.4075 0.4284 2.998z" style="fill:#585858;stroke-width:.2646"/><path d="m172 107.5-0.2919-6.762 0.3375 0.1776 0.3175 6.743z" style="fill:#585858;stroke-width:.2646"/><path d="m127 103.8-0.4716-13.92" style="fill:#434343;stroke-width:.2646;stroke:#585858"/><path d="m189 126.8 0.3097 10.51-16.39-1.193-0.3758-10.55 0.768-0.5656-0.1793-10.28-3.012 0.0354 0.0666-2.477 4.124-4.863-0.0898-18.61-1.03-1.445 7.457-1.198 4.384 0.9882-0.6801 1.26 1.605 20.06 2.995 4.166 1.076 12.1-2.503 0.045z" style="fill:#585858"/><path d="m77.28 155-5.607-2.486-0.2233 2.486h-0.6522l-0.2649-2.8-27.24-9.384v1.529l-0.6025-0.0668-0.02503-1.781-7.127-2.67 0.01103 1.632-0.6215-0.3051 0.1413-1.564-17.98-6.866-0.0044 1.85-0.6749-0.5118 0.04711-1.444-17.76-6.576-0.04822 1.825-0.5173-0.5181-0.08852-1.328-3.392-0.9875-0.01932 0.9712-0.5057-0.0835-0.04711-1.056-9.487-1.837 0.08852 0.7372-0.4157-0.0256v-0.7936l-14.74-1.1-0.06257-3.178 13.64 0.3868 9.639 1.608 7.368 1.535 12.55 4.25 25.86 8.227 62.5 20.33z" style="fill:#434343"/><path d="m71.71 155-2.495-0.6814-30.65-11.8-26.22-10.22-16.46-5.827-9.509-2.364-12.31-1.002-15.28-1.536-47.9-3.367-17.65-0.506v37.25l175.7-0.0121z" style="fill:#434343"/></g></svg>
