<?xml version="1.0" encoding="UTF-8" standalone="no"?>
<svg
	xmlns:dc="http://purl.org/dc/elements/1.1/"
	xmlns:cc="http://creativecommons.org/ns#"
	xmlns:rdf="http://www.w3.org/1999/02/22-rdf-syntax-ns#"
	xmlns:svg="http://www.w3.org/2000/svg"
	xmlns="http://www.w3.org/2000/svg"
	xmlns:xlink="http://www.w3.org/1999/xlink"
	width="258.19119mm"
	height="177.3114mm"
	viewBox="0 0 258.19119 177.3114"
	version="1.1"
	id="svg8">
  <defs
	  id="defs2">
	 <linearGradient
		 id="linearGradient938">
		<stop
			style="stop-color:#399aba;stop-opacity:1;"
			offset="0"
			id="stop934" />
		<stop
			style="stop-color:#196f83;stop-opacity:1"
			offset="1"
			id="stop936" />
	 </linearGradient>
	 <linearGradient
		 id="linearGradient928">
		<stop
			style="stop-color:#c6fdca;stop-opacity:1"
			offset="0"
			id="stop924" />
		<stop
			id="stop932"
			offset="0.51686507"
			style="stop-color:#fbe1c8;stop-opacity:1" />
		<stop
			style="stop-color:#f3899f;stop-opacity:1"
			offset="1"
			id="stop926" />
	 </linearGradient>
	 <linearGradient
		 gradientTransform="translate(174.64941,-43.53812)"
		 xlink:href="#linearGradient928"
		 id="linearGradient930"
		 x1="-30.607031"
		 y1="219.50632"
		 x2="-30.607031"
		 y2="44.125366"
		 gradientUnits="userSpaceOnUse" />
	 <linearGradient
		 gradientTransform="translate(174.64941,-43.53812)"
		 xlink:href="#linearGradient938"
		 id="linearGradient940"
		 x1="-24.181429"
		 y1="156.95721"
		 x2="-24.181429"
		 y2="108.19829"
		 gradientUnits="userSpaceOnUse" />
  </defs>
  <metadata
	  id="metadata5">
	 <rdf:RDF>
		<cc:Work
			rdf:about="">
		  <dc:format>image/svg+xml</dc:format>
		  <dc:type
			  rdf:resource="http://purl.org/dc/dcmitype/StillImage" />
		  <dc:title></dc:title>
		</cc:Work>
	 </rdf:RDF>
  </metadata>
  <rect
	  y="2.697754e-07"
	  x="-4.0625e-06"
	  height="177.3114"
	  width="258.19119"
	  id="rect837"
	  style="opacity:1;vector-effect:none;fill:url(#linearGradient930);fill-opacity:1;stroke:none;stroke-width:0.40090632;stroke-linecap:round;stroke-linejoin:round;stroke-miterlimit:4;stroke-dasharray:none;stroke-dashoffset:0;stroke-opacity:1" />
  <path
	  d="m 256.49465,112.67746 a 33.072917,33.851102 0 0 1 -16.53645,29.31592 33.072917,33.851102 0 0 1 -33.07293,0 33.072917,33.851102 0 0 1 -16.53646,-29.31592 h 33.07292 z"
	  id="path942-6"
	  style="opacity:1;vector-effect:none;fill:#edf8e5;fill-opacity:1;stroke:none;stroke-width:0.5455882;stroke-linecap:round;stroke-linejoin:round;stroke-miterlimit:4;stroke-dasharray:none;stroke-dashoffset:0;stroke-opacity:1" />
  <path
	  d="m 256.49465,112.67746 a 33.072918,33.851101 0 0 0 -16.53646,-29.31592 33.072918,33.851101 0 0 0 -33.07292,0 33.072918,33.851101 0 0 0 -16.53646,29.31592 h 33.07292 z"
	  id="path942"
	  style="opacity:1;vector-effect:none;fill:#fcfcfc;fill-opacity:1;stroke:none;stroke-width:0.5455882;stroke-linecap:round;stroke-linejoin:round;stroke-miterlimit:4;stroke-dasharray:none;stroke-dashoffset:0;stroke-opacity:1" />
  <path
	  id="path826"
	  d="m 258.19119,102.26401 h -2.29178 v -2.03794 h -3.46152 v -1.20271 h -6.97179 v -7.3165 h -14.6749 l -0.92633,0.63476 h -1.3651 v 8.08491 h -1.9014 V 89.03416 l -1.79274,-0.32917 V 72.49686 l -2.15814,-0.39626 v -3.11165 h -16.13568 v 3.24064 l -2.38282,0.94272 v 8.81262 l -0.83186,0.57005 v 8.04939 l -0.87726,0.34707 v 5.19878 h -1.466 v 1.1693 h -2.6327 v 7.08264 h -0.82882 V 97.6202 H 189.643 v -1.50339 h -0.87757 v -0.56795 h -1.17009 l -0.3886,-0.46123 h -0.65961 l -0.37067,0.43995 h -1.33571 v 0.33866 h -2.5352 v -5.11153 h -2.58395 l -0.201,-0.23856 h -1.89542 l -0.43002,0.29468 h -1.44699 v 6.99311 h -1.09697 v -5.06141 h -5.07039 v -5.59018 h -3.24193 v -1.18117 h -10.1354 v 1.18117 h -3.79215 v 13.5599 h -1.8616 V 74.77363 h -4.1369 v -1.46466 h 1.93054 v -0.89769 h -16.47864 v 0.99219 h 1.72371 v 1.65364 h -4.82637 v 26.41109 h -1.65476 V 83.1836 l -2.25187,-0.89091 h -7.60774 l -1.55628,-1.06645 h -2.78746 v -12.8782 h -1.12078 v 12.86849 h -0.68255 v 0.71829 h -1.53575 v -6.48129 l -18.233923,1.75396 v 5.86322 H 87.430661 V 81.03278 H 82.57965 V 64.64582 H 67.46598 v 1.80407 h -1.95016 l -3.69123,9.43998 v 10.03728 h -2.06171 v -5.11153 h -19.8428 v -1.20271 h -6.72802 l -0.72827,1.8625 H 19.0047 v 1.77905 L 6.08495,83.2544 H 0 v 29.80061 l 258.19119,4.4e-4 z"
	  style="fill:url(#linearGradient940);fill-opacity:1;stroke:none;stroke-width:0.31962222px;stroke-linecap:butt;stroke-linejoin:miter;stroke-opacity:1" />
  <path
	  id="path826-6"
	  d="m 258.1912,123.59182 h -2.29178 v 2.03794 h -3.46152 v 1.20271 h -6.97179 v 7.3165 h -14.6749 l -0.92633,-0.63476 h -1.3651 v -8.08491 h -1.9014 v 11.39237 l -1.79274,0.32917 v 16.20813 l -2.15814,0.39626 v 3.11165 h -16.13569 v -3.24064 l -2.38281,-0.94272 v -8.81262 l -0.83187,-0.57005 v -8.04939 l -0.87725,-0.34707 v -5.19878 h -1.466 v -1.1693 h -2.6327 v -7.08264 h -0.82882 v 6.78196 h -7.84935 v 1.50339 h -0.87757 v 0.56795 h -1.1701 l -0.3886,0.46123 h -0.65961 l -0.37066,-0.43995 h -1.33571 v -0.33866 h -2.5352 v 5.11153 h -2.58395 l -0.20101,0.23856 h -1.89541 l -0.43002,-0.29468 h -1.447 v -6.99311 h -1.09696 v 5.06141 h -5.07039 v 5.59018 h -3.24193 v 1.18117 h -10.13541 v -1.18117 h -3.79214 v -13.5599 h -1.86161 v 25.93862 h -4.13689 v 1.46466 h 1.93054 v 0.89769 h -16.47865 v -0.99219 h 1.72372 v -1.65364 h -4.82638 v -26.41109 h -1.65476 v 18.2846 l -2.25187,0.89091 h -7.60774 l -1.55628,1.06645 h -2.78746 v 12.8782 h -1.12078 V 144.6393 h -0.68255 v -0.71829 h -1.53575 v 6.48129 l -18.233923,-1.75396 v -5.86322 h -3.900296 v 2.03793 H 82.57965 v 16.38696 H 67.46598 v -1.80407 h -1.95016 l -3.69123,-9.43998 v -10.03728 h -2.06171 v 5.11153 h -19.8428 v 1.20271 h -6.72802 l -0.72827,-1.8625 H 19.0047 v -1.77905 H 6.08495 L 0,143.71864 v -30.91782 l 258.1912,-5.3e-4 z"
	  style="fill:#84bec0;fill-opacity:1;stroke:none;stroke-width:0.31962222px;stroke-linecap:butt;stroke-linejoin:miter;stroke-opacity:1" />
</svg>
