<?xml version="1.0" encoding="UTF-8"?>
<svg width="73.441mm" height="95.882mm" version="1.1" viewBox="0 0 73.441 95.882" xmlns="http://www.w3.org/2000/svg" xmlns:cc="http://creativecommons.org/ns#" xmlns:dc="http://purl.org/dc/elements/1.1/" xmlns:rdf="http://www.w3.org/1999/02/22-rdf-syntax-ns#">
<metadata>
<rdf:RDF>
<cc:Work rdf:about="">
<dc:format>image/svg+xml</dc:format>
<dc:type rdf:resource="http://purl.org/dc/dcmitype/StillImage"/>
<dc:title/>
</cc:Work>
</rdf:RDF>
</metadata>
<g transform="translate(-46.061 -29.263)">
<g transform="translate(100.92 -46.491)">
<g>
<path d="m-3.4745 170.18 9.889-2.0045 3.2072-9.3544 2.2718-34.745 0.4009-19.377-6.949-16.036-8.0181-7.8845-11.225-2.8063-12.027 2.8063-8.6863 12.963-3.6081 12.428-7.0826-0.40091-6.8154 5.8799 0.4009 35.146 6.949 5.3454 6.2808 1.0691 2.0045 14.299 14.299 1.8709 4.5436-2.5391 0.4009-13.631 8.5526-0.13363 0.66817 10.29z" fill="#dc0000"/>
<path d="m9.889 137.71s-1.4223 3.935-3.6081 5.479-5.0971 1.6447-9.2208 2.2718-11.558 1.4946-15.502 0.93544-5.546-0.9752-7.8845-2.8063-3.9276-4.2701-5.2118-7.8844-1.1316-8.5232-1.3363-13.497-0.092-10.929 0.26727-16.303c0.35927-5.3743 1.8709-15.903 1.8709-15.903l-6.4813 9.2208-1.9377 16.17s-2.2219-0.37072-3.8754-0.40091c-1.6536-0.0302-4.1606-0.18765-6.0136 0.40091s-4.8108 2.94-4.8108 2.94l1.7373 31.805 6.6817 3.3409 8.1517-0.80181 1.0691 15.368h18.442l1.6036-14.433 8.419 0.53454 2.2718 14.7 12.294-1.47z" fill="#820000"/>
</g>
<g fill="none" stroke-width="3.865">
<path d="m-8.6935 153.75c0.41441 3.2999-0.18448 13.11 2.2679 14.552s9.9213 1.4088 12.284 0.18899c2.3629-1.2198 1.061-0.9035 2.0789-3.0238s5.7575-37.819 4.7247-50.649-2.4695-19.371-6.6146-25.513c-4.1451-6.1426-9.4313-9.313-14.552-10.772s-9.1895-1.0889-13.796 1.1339-8.3807 6.4168-11.528 12.284c-3.1476 5.8674-4.3921 15.324-5.2917 22.49s-0.65656 11.514-0.37798 20.222 1.5341 28.363 2.4568 30.616 1.0523 1.4683 2.4568 3.0238 11.744 1.8345 14.552 0.75596 1.3643-0.0297 2.4568-2.4568c1.0926-2.4272-0.56485-10.327 0.75595-12.473s0.08678-0.71304 2.2679-1.3229c2.1811-0.60988 8.5649 1.1002 10.961-0.18899-2.3283 1.5457-2.0564-0.20077-5.1027 1.1339z" stroke="#020000" stroke-linejoin="round"/>
<path d="m-38.905 152.54s0.37434 0.46204-3.428-0.11463-6.2792-1.5549-8.1265-3.7798-1.4695-3.1114-2.0789-8.1265-0.41036-16.721 0.18899-21.923 0.91075-7.2079 2.0789-9.2604 0.90572-2.0782 3.4018-3.2128 8.6437-0.86666 8.6437-0.86666-0.93756 6.6585-1.1418 10.011c-0.42382 6.9567-0.27613 13.939-0.16999 20.908 0.08313 5.4582 0.63182 16.364 0.63182 16.364z" stroke="#000"/>
</g>
<g>
<path d="m12.963 116.59-9.4881 2.94-16.571-0.80181-9.2208-8.5526v-9.889l6.1472-6.4145 24.722-0.53454 8.2854 11.493z" fill="#47636e" stroke="#000" stroke-width=".26458px"/>
<path d="m18.308 105.77s-1.4682 1.8186-3.0736 2.8063-4.0084 1.988-6.6817 2.5391c-2.6734 0.55111-6.5167 0.52316-9.2208 0.4009-2.7041-0.12226-4.9805-0.19991-6.949-0.93545s-3.28-1.6128-4.6772-3.0736-2.6828-3.6682-3.3409-5.6127c-0.65807-1.9445-0.66817-5.7463-0.66817-5.7463l19.243-2.5391 11.893 4.1427z" fill="#95c5dc"/>
<ellipse transform="matrix(.99892 .046475 .058813 .99827 0 0)" cx="-3.2996" cy="101.49" rx="9.1799" ry="4.2455" fill="#fff"/>
</g>
<path d="m-1.8899 92.893c3.4576 0.0827 7.7232 0.11012 10.583 1.5119 2.8601 1.4018 4.706 3.5484 6.0476 5.8586 1.3416 2.3102 1.8018 5.1772 1.8899 7.3705 0.0881 2.1933-0.0764 3.7578-0.94494 5.4806-0.86857 1.7229-1.9667 3.0958-4.1577 4.3467-2.191 1.2509-5.2611 1.7698-8.8824 2.0789-3.6214 0.30906-9.3827-0.17846-12.662-0.75595s-5.1312-0.91213-6.9926-2.0789-2.8742-2.5004-3.9688-4.3467-2.0744-4.5674-2.2679-6.6146 0.12635-3.5494 0.75595-5.2917c0.6296-1.7422 1.1904-3.6042 3.0238-4.9137s4.6281-1.2348 7.5595-1.7009 6.5588-1.0276 10.016-0.94494z" fill="none" stroke="#000" stroke-width="3.865"/>
</g>
</g>
</svg>
